<?xml version="1.0" standalone="no"?><!DOCTYPE svg PUBLIC "-//W3C//DTD SVG 1.1//EN" "http://www.w3.org/Graphics/SVG/1.1/DTD/svg11.dtd"><svg t="1738045477420" class="icon" viewBox="0 0 1024 1024" version="1.1" xmlns="http://www.w3.org/2000/svg" p-id="6599" xmlns:xlink="http://www.w3.org/1999/xlink" width="200" height="200"><path d="M512 362.666667a149.333333 149.333333 0 1 0 0 298.666666 149.333333 149.333333 0 0 0 0-298.666666z m0-85.333334a234.666667 234.666667 0 1 1 0 469.333334 234.666667 234.666667 0 0 1 0-469.333334zM819.2 469.333333H896a42.666667 42.666667 0 1 1 0 85.333334h-76.8a42.666667 42.666667 0 1 1 0-85.333334zM128 469.333333h76.8a42.666667 42.666667 0 0 1 0 85.333334H128a42.666667 42.666667 0 1 1 0-85.333334zM554.666667 819.2V896a42.666667 42.666667 0 1 1-85.333334 0v-76.8a42.666667 42.666667 0 1 1 85.333334 0zM554.666667 128v76.8a42.666667 42.666667 0 1 1-85.333334 0V128a42.666667 42.666667 0 0 1 85.333334 0z" fill="#515151" p-id="6600"></path><path d="M759.381333 699.050667l54.314667 54.314666a42.666667 42.666667 0 0 1-60.330667 60.330667l-54.314666-54.314667a42.666667 42.666667 0 0 1 60.330666-60.330666zM270.634667 210.304l54.314666 54.314667a42.666667 42.666667 0 1 1-60.330666 60.330666L210.304 270.634667A42.666667 42.666667 0 1 1 270.634667 210.346667z" fill="#515151" p-id="6601"></path><path d="M324.949333 759.381333l-54.314666 54.314667a42.666667 42.666667 0 0 1-60.330667-60.330667l54.314667-54.314666a42.666667 42.666667 0 1 1 60.330666 60.330666zM813.696 270.634667l-54.314667 54.314666a42.666667 42.666667 0 1 1-60.330666-60.330666l54.314666-54.314667a42.666667 42.666667 0 1 1 60.330667 60.330667z" fill="#515151" p-id="6602"></path></svg>